<svg width="1361" height="984" viewBox="0 0 1361 984" fill="none" xmlns="http://www.w3.org/2000/svg">
<path d="M1113.4 39.9172C1099.48 39.9172 1087.75 36.1024 1078.23 28.459C1068.69 20.622 1063.93 11.2232 1063.93 0.276428H1360.72C1360.72 11.4306 1355.83 20.8294 1346.05 28.459C1336.25 36.1024 1324.66 39.9172 1311.26 39.9172H1113.4ZM1063.95 198.48V79.5579H1360.72V198.48H1311.26V119.199H1113.4V198.48H1063.95Z" fill="#262626"/>
<path d="M816.641 79.5579H798.067L776.388 96.9318V119.199H866.103H889.454H965.027V158.839H791.892C788.478 158.839 782.321 158.881 776.371 158.48V198.48H1014.47V79.5579H889.437H816.641Z" fill="#262626"/>
<path d="M999.795 28.459C1009.57 20.8294 1014.47 11.4306 1014.47 0.276428H896.973L889.713 6.09541L847.511 39.9172H965.009C978.41 39.9172 989.999 36.1024 999.795 28.459Z" fill="#262626"/>
<path d="M526.525 39.9172L477.253 0.414612L526.525 39.9172Z" fill="#262626"/>
<path d="M507.244 0.276428L477.253 0.415002L507.244 0.276428Z" fill="#262626"/>
<path d="M593.613 198.48V93.6837L575.987 79.5579L593.613 93.6837V198.48Z" fill="#262626"/>
<path d="M583.265 97.1253L561.362 79.5579H346.233V198.48H395.695V119.199H583.265V97.1253Z" fill="#262626"/>
<path d="M395.696 39.9172H511.883L469.923 6.28889L462.421 0.276428H346.234C346.234 11.2232 350.994 20.6082 360.531 28.459C370.068 36.1024 381.795 39.9172 395.696 39.9172Z" fill="#262626"/>
<path d="M882.935 0.331708L813.606 0L717.32 77.1667H717.251V982H766.558V93.587L882.935 0.331708Z" fill="#B71C1C"/>
<path d="M547.118 0.179871L477.788 0.511579L594.165 93.7807V983.5H643.472V77.3466H643.403L547.118 0.179871Z" fill="#B71C1C"/>
<path d="M49.462 39.9172H57.4987H59.7235H233.341H239.256H247.293C261.211 39.9172 272.938 36.1024 282.458 28.459C291.995 20.622 296.755 11.2232 296.755 0.276428H233.324H59.7407H0C0 11.2232 4.75993 20.6082 14.2971 28.459C23.8342 36.1024 35.5616 39.9172 49.462 39.9172Z" fill="#262626"/>
<path d="M296.772 119.199V80.0002V79.627H227.563C225.959 79.8758 224.304 79.5579 222.579 79.5579H0V198.48H49.462V119.199H123.655L222.579 198.48H296.772L197.848 119.199H247.31H296.772Z" fill="#262626"/>
</svg>
